<svg width="1652" height="1025" viewBox="0 0 1652 1025" fill="none" xmlns="http://www.w3.org/2000/svg">
<path d="M1.00012 1V1025" stroke="#17161C"/>
<path d="M51.0001 1V1025" stroke="#17161C"/>
<path d="M101 1V1025" stroke="#17161C"/>
<path d="M151 1V1025" stroke="#17161C"/>
<path d="M201 1V1025" stroke="#17161C"/>
<path d="M251 1V1025" stroke="#17161C"/>
<path d="M301 1V1025" stroke="#17161C"/>
<path d="M351 1V1025" stroke="#17161C"/>
<path d="M401 1V1025" stroke="#17161C"/>
<path d="M451 1V1025" stroke="#17161C"/>
<path d="M501 1V1025" stroke="#17161C"/>
<path d="M551 1V1025" stroke="#17161C"/>
<path d="M601 1V1025" stroke="#17161C"/>
<path d="M651 1V1025" stroke="#17161C"/>
<path d="M701 1V1025" stroke="#17161C"/>
<path d="M751 1V1025" stroke="#17161C"/>
<path d="M801 1V1025" stroke="#17161C"/>
<path d="M851 1V1025" stroke="#17161C"/>
<path d="M901 1V1025" stroke="#17161C"/>
<path d="M951 1V1025" stroke="#17161C"/>
<path d="M1001 1V1025" stroke="#17161C"/>
<path d="M1051 1V1025" stroke="#17161C"/>
<path d="M1101 1V1025" stroke="#17161C"/>
<path d="M1151 1V1025" stroke="#17161C"/>
<path d="M1201 1V1025" stroke="#17161C"/>
<path d="M1251 1V1025" stroke="#17161C"/>
<path d="M1301 1V1025" stroke="#17161C"/>
<path d="M1351 1V1025" stroke="#17161C"/>
<path d="M1401 1V1025" stroke="#17161C"/>
<path d="M1451 1V1025" stroke="#17161C"/>
<path d="M1501 1V1025" stroke="#17161C"/>
<path d="M1551 1V1025" stroke="#17161C"/>
<path d="M1601 1V1025" stroke="#17161C"/>
<path d="M1651 1V1025" stroke="#17161C"/>
<path d="M1 1008.87L1651 1008.87" stroke="#17161C"/>
<path d="M1 958.48L1651 958.48" stroke="#17161C"/>
<path d="M1 908.087L1651 908.087" stroke="#17161C"/>
<path d="M1 857.693L1651 857.693" stroke="#17161C"/>
<path d="M1 807.299L1651 807.299" stroke="#17161C"/>
<path d="M1 756.906L1651 756.905" stroke="#17161C"/>
<path d="M1 706.512L1651 706.512" stroke="#17161C"/>
<path d="M1 656.118L1651 656.118" stroke="#17161C"/>
<path d="M1 605.724L1651 605.724" stroke="#17161C"/>
<path d="M1 555.331L1651 555.331" stroke="#17161C"/>
<path d="M1 504.937L1651 504.937" stroke="#17161C"/>
<path d="M1 454.543L1651 454.543" stroke="#17161C"/>
<path d="M1 404.15L1651 404.15" stroke="#17161C"/>
<path d="M1 353.756L1651 353.756" stroke="#17161C"/>
<path d="M1 303.362L1651 303.362" stroke="#17161C"/>
<path d="M1 252.969L1651 252.968" stroke="#17161C"/>
<path d="M1 202.575L1651 202.575" stroke="#17161C"/>
<path d="M1 152.181L1651 152.181" stroke="#17161C"/>
<path d="M1 101.787L1651 101.787" stroke="#17161C"/>
<path d="M1 51.3936L1651 51.3935" stroke="#17161C"/>
<path d="M1 1L1651 0.999927" stroke="#17161C"/>
</svg>
