<svg width="448" height="50" viewBox="0 0 448 50" fill="none" xmlns="http://www.w3.org/2000/svg">
<rect x="4.99316" width="3.56657" height="13.5367" fill="#FEB80A"/>
<rect width="3.56337" height="13.5489" transform="matrix(0.500449 0.865766 -0.866285 0.499551 11.7529 1.8418)" fill="#FEB80A"/>
<rect width="3.56337" height="13.5489" transform="matrix(-0.500449 0.865766 -0.866285 -0.499551 13.5205 8.63867)" fill="#FEB80A"/>
<rect x="30.5293" width="3.56657" height="13.5367" fill="#11484C"/>
<rect width="3.56337" height="13.5489" transform="matrix(0.500449 0.865766 -0.866285 0.499551 37.2891 1.8418)" fill="#11484C"/>
<rect width="3.56337" height="13.5489" transform="matrix(-0.500449 0.865766 -0.866285 -0.499551 39.0566 8.63867)" fill="#11484C"/>
<rect x="56.0664" width="3.56657" height="13.5367" fill="#FEB80A"/>
<rect width="3.56337" height="13.5489" transform="matrix(0.500449 0.865766 -0.866285 0.499551 62.8262 1.8418)" fill="#FEB80A"/>
<rect width="3.56337" height="13.5489" transform="matrix(-0.500449 0.865766 -0.866285 -0.499551 64.5938 8.63867)" fill="#FEB80A"/>
<rect x="81.6025" width="3.56657" height="13.5367" fill="#11484C"/>
<rect width="3.56337" height="13.5489" transform="matrix(0.500449 0.865766 -0.866285 0.499551 88.3623 1.8418)" fill="#11484C"/>
<rect width="3.56337" height="13.5489" transform="matrix(-0.500449 0.865766 -0.866285 -0.499551 90.1299 8.63867)" fill="#11484C"/>
<rect x="107.14" width="3.56657" height="13.5367" fill="#FEB80A"/>
<rect width="3.56337" height="13.5489" transform="matrix(0.500449 0.865766 -0.866285 0.499551 113.899 1.8418)" fill="#FEB80A"/>
<rect width="3.56337" height="13.5489" transform="matrix(-0.500449 0.865766 -0.866285 -0.499551 115.667 8.63867)" fill="#FEB80A"/>
<rect x="132.676" width="3.56657" height="13.5367" fill="#11484C"/>
<rect width="3.56337" height="13.5489" transform="matrix(0.500449 0.865766 -0.866285 0.499551 139.436 1.8418)" fill="#11484C"/>
<rect width="3.56337" height="13.5489" transform="matrix(-0.500449 0.865766 -0.866285 -0.499551 141.203 8.63867)" fill="#11484C"/>
<rect x="158.213" width="3.56657" height="13.5367" fill="#FEB80A"/>
<rect width="3.56337" height="13.5489" transform="matrix(0.500449 0.865766 -0.866285 0.499551 164.973 1.8418)" fill="#FEB80A"/>
<rect width="3.56337" height="13.5489" transform="matrix(-0.500449 0.865766 -0.866285 -0.499551 166.74 8.63867)" fill="#FEB80A"/>
<rect x="183.749" width="3.56657" height="13.5367" fill="#11484C"/>
<rect width="3.56337" height="13.5489" transform="matrix(0.500449 0.865766 -0.866285 0.499551 190.509 1.8418)" fill="#11484C"/>
<rect width="3.56337" height="13.5489" transform="matrix(-0.500449 0.865766 -0.866285 -0.499551 192.276 8.63867)" fill="#11484C"/>
<rect x="209.286" width="3.56657" height="13.5367" fill="#FEB80A"/>
<rect width="3.56337" height="13.5489" transform="matrix(0.500449 0.865766 -0.866285 0.499551 216.046 1.8418)" fill="#FEB80A"/>
<rect width="3.56337" height="13.5489" transform="matrix(-0.500449 0.865766 -0.866285 -0.499551 217.813 8.63867)" fill="#FEB80A"/>
<rect x="234.822" width="3.56657" height="13.5367" fill="#11484C"/>
<rect width="3.56337" height="13.5489" transform="matrix(0.500449 0.865766 -0.866285 0.499551 241.582 1.8418)" fill="#11484C"/>
<rect width="3.56337" height="13.5489" transform="matrix(-0.500449 0.865766 -0.866285 -0.499551 243.35 8.63867)" fill="#11484C"/>
<rect x="260.359" width="3.56657" height="13.5367" fill="#FEB80A"/>
<rect width="3.56337" height="13.5489" transform="matrix(0.500449 0.865766 -0.866285 0.499551 267.119 1.8418)" fill="#FEB80A"/>
<rect width="3.56337" height="13.5489" transform="matrix(-0.500449 0.865766 -0.866285 -0.499551 268.887 8.63867)" fill="#FEB80A"/>
<rect x="285.896" width="3.56657" height="13.5367" fill="#11484C"/>
<rect width="3.56337" height="13.5489" transform="matrix(0.500449 0.865766 -0.866285 0.499551 292.655 1.8418)" fill="#11484C"/>
<rect width="3.56337" height="13.5489" transform="matrix(-0.500449 0.865766 -0.866285 -0.499551 294.423 8.63867)" fill="#11484C"/>
<rect x="311.433" width="3.56657" height="13.5367" fill="#FEB80A"/>
<rect width="3.56337" height="13.5489" transform="matrix(0.500449 0.865766 -0.866285 0.499551 318.192 1.8418)" fill="#FEB80A"/>
<rect width="3.56337" height="13.5489" transform="matrix(-0.500449 0.865766 -0.866285 -0.499551 319.96 8.63867)" fill="#FEB80A"/>
<rect x="336.969" width="3.56657" height="13.5367" fill="#11484C"/>
<rect width="3.56337" height="13.5489" transform="matrix(0.500449 0.865766 -0.866285 0.499551 343.729 1.8418)" fill="#11484C"/>
<rect width="3.56337" height="13.5489" transform="matrix(-0.500449 0.865766 -0.866285 -0.499551 345.496 8.63867)" fill="#11484C"/>
<rect x="362.506" width="3.56657" height="13.5367" fill="#FEB80A"/>
<rect width="3.56337" height="13.5489" transform="matrix(0.500449 0.865766 -0.866285 0.499551 369.266 1.8418)" fill="#FEB80A"/>
<rect width="3.56337" height="13.5489" transform="matrix(-0.500449 0.865766 -0.866285 -0.499551 371.033 8.63867)" fill="#FEB80A"/>
<rect x="388.042" width="3.56657" height="13.5367" fill="#11484C"/>
<rect width="3.56337" height="13.5489" transform="matrix(0.500449 0.865766 -0.866285 0.499551 394.802 1.8418)" fill="#11484C"/>
<rect width="3.56337" height="13.5489" transform="matrix(-0.500449 0.865766 -0.866285 -0.499551 396.569 8.63867)" fill="#11484C"/>
<rect x="413.579" width="3.56657" height="13.5367" fill="#FEB80A"/>
<rect width="3.56337" height="13.5489" transform="matrix(0.500449 0.865766 -0.866285 0.499551 420.339 1.8418)" fill="#FEB80A"/>
<rect width="3.56337" height="13.5489" transform="matrix(-0.500449 0.865766 -0.866285 -0.499551 422.106 8.63867)" fill="#FEB80A"/>
<rect x="439.115" width="3.56657" height="13.5367" fill="#11484C"/>
<rect width="3.56337" height="13.5489" transform="matrix(0.500449 0.865766 -0.866285 0.499551 445.875 1.8418)" fill="#11484C"/>
<rect width="3.56337" height="13.5489" transform="matrix(-0.500449 0.865766 -0.866285 -0.499551 447.643 8.63867)" fill="#11484C"/>
<rect x="4.99316" y="35.5366" width="3.56657" height="13.5367" fill="#11484C"/>
<rect width="3.56337" height="13.5489" transform="matrix(0.500449 0.865766 -0.866285 0.499551 11.7529 37.3784)" fill="#11484C"/>
<rect width="3.56337" height="13.5489" transform="matrix(-0.500449 0.865766 -0.866285 -0.499551 13.5205 44.1753)" fill="#11484C"/>
<rect x="30.5293" y="35.5366" width="3.56657" height="13.5367" fill="#FEB80A"/>
<rect width="3.56337" height="13.5489" transform="matrix(0.500449 0.865766 -0.866285 0.499551 37.2891 37.3784)" fill="#FEB80A"/>
<rect width="3.56337" height="13.5489" transform="matrix(-0.500449 0.865766 -0.866285 -0.499551 39.0566 44.1753)" fill="#FEB80A"/>
<rect x="56.0664" y="35.5366" width="3.56657" height="13.5367" fill="#11484C"/>
<rect width="3.56337" height="13.5489" transform="matrix(0.500449 0.865766 -0.866285 0.499551 62.8262 37.3784)" fill="#11484C"/>
<rect width="3.56337" height="13.5489" transform="matrix(-0.500449 0.865766 -0.866285 -0.499551 64.5938 44.1753)" fill="#11484C"/>
<rect x="81.6025" y="35.5366" width="3.56657" height="13.5367" fill="#FEB80A"/>
<rect width="3.56337" height="13.5489" transform="matrix(0.500449 0.865766 -0.866285 0.499551 88.3623 37.3784)" fill="#FEB80A"/>
<rect width="3.56337" height="13.5489" transform="matrix(-0.500449 0.865766 -0.866285 -0.499551 90.1299 44.1753)" fill="#FEB80A"/>
<rect x="107.14" y="35.5366" width="3.56657" height="13.5367" fill="#11484C"/>
<rect width="3.56337" height="13.5489" transform="matrix(0.500449 0.865766 -0.866285 0.499551 113.899 37.3784)" fill="#11484C"/>
<rect width="3.56337" height="13.5489" transform="matrix(-0.500449 0.865766 -0.866285 -0.499551 115.667 44.1753)" fill="#11484C"/>
<rect x="132.676" y="35.5366" width="3.56657" height="13.5367" fill="#FEB80A"/>
<rect width="3.56337" height="13.5489" transform="matrix(0.500449 0.865766 -0.866285 0.499551 139.436 37.3784)" fill="#FEB80A"/>
<rect width="3.56337" height="13.5489" transform="matrix(-0.500449 0.865766 -0.866285 -0.499551 141.203 44.1753)" fill="#FEB80A"/>
<rect x="158.213" y="35.5366" width="3.56657" height="13.5367" fill="#11484C"/>
<rect width="3.56337" height="13.5489" transform="matrix(0.500449 0.865766 -0.866285 0.499551 164.973 37.3784)" fill="#11484C"/>
<rect width="3.56337" height="13.5489" transform="matrix(-0.500449 0.865766 -0.866285 -0.499551 166.74 44.1753)" fill="#11484C"/>
<rect x="183.749" y="35.5366" width="3.56657" height="13.5367" fill="#FEB80A"/>
<rect width="3.56337" height="13.5489" transform="matrix(0.500449 0.865766 -0.866285 0.499551 190.509 37.3784)" fill="#FEB80A"/>
<rect width="3.56337" height="13.5489" transform="matrix(-0.500449 0.865766 -0.866285 -0.499551 192.276 44.1753)" fill="#FEB80A"/>
<rect x="209.286" y="35.5366" width="3.56657" height="13.5367" fill="#11484C"/>
<rect width="3.56337" height="13.5489" transform="matrix(0.500449 0.865766 -0.866285 0.499551 216.046 37.3784)" fill="#11484C"/>
<rect width="3.56337" height="13.5489" transform="matrix(-0.500449 0.865766 -0.866285 -0.499551 217.813 44.1753)" fill="#11484C"/>
<rect x="234.822" y="35.5366" width="3.56657" height="13.5367" fill="#FEB80A"/>
<rect width="3.56337" height="13.5489" transform="matrix(0.500449 0.865766 -0.866285 0.499551 241.582 37.3784)" fill="#FEB80A"/>
<rect width="3.56337" height="13.5489" transform="matrix(-0.500449 0.865766 -0.866285 -0.499551 243.35 44.1753)" fill="#FEB80A"/>
<rect x="260.359" y="35.5366" width="3.56657" height="13.5367" fill="#11484C"/>
<rect width="3.56337" height="13.5489" transform="matrix(0.500449 0.865766 -0.866285 0.499551 267.119 37.3784)" fill="#11484C"/>
<rect width="3.56337" height="13.5489" transform="matrix(-0.500449 0.865766 -0.866285 -0.499551 268.887 44.1753)" fill="#11484C"/>
<rect x="285.896" y="35.5366" width="3.56657" height="13.5367" fill="#FEB80A"/>
<rect width="3.56337" height="13.5489" transform="matrix(0.500449 0.865766 -0.866285 0.499551 292.655 37.3784)" fill="#FEB80A"/>
<rect width="3.56337" height="13.5489" transform="matrix(-0.500449 0.865766 -0.866285 -0.499551 294.423 44.1753)" fill="#FEB80A"/>
<rect x="311.433" y="35.5366" width="3.56657" height="13.5367" fill="#11484C"/>
<rect width="3.56337" height="13.5489" transform="matrix(0.500449 0.865766 -0.866285 0.499551 318.192 37.3784)" fill="#11484C"/>
<rect width="3.56337" height="13.5489" transform="matrix(-0.500449 0.865766 -0.866285 -0.499551 319.96 44.1753)" fill="#11484C"/>
<rect x="336.969" y="35.5366" width="3.56657" height="13.5367" fill="#FEB80A"/>
<rect width="3.56337" height="13.5489" transform="matrix(0.500449 0.865766 -0.866285 0.499551 343.729 37.3784)" fill="#FEB80A"/>
<rect width="3.56337" height="13.5489" transform="matrix(-0.500449 0.865766 -0.866285 -0.499551 345.496 44.1753)" fill="#FEB80A"/>
<rect x="362.506" y="35.5366" width="3.56657" height="13.5367" fill="#11484C"/>
<rect width="3.56337" height="13.5489" transform="matrix(0.500449 0.865766 -0.866285 0.499551 369.266 37.3784)" fill="#11484C"/>
<rect width="3.56337" height="13.5489" transform="matrix(-0.500449 0.865766 -0.866285 -0.499551 371.033 44.1753)" fill="#11484C"/>
<rect x="388.042" y="35.5366" width="3.56657" height="13.5367" fill="#FEB80A"/>
<rect width="3.56337" height="13.5489" transform="matrix(0.500449 0.865766 -0.866285 0.499551 394.802 37.3784)" fill="#FEB80A"/>
<rect width="3.56337" height="13.5489" transform="matrix(-0.500449 0.865766 -0.866285 -0.499551 396.569 44.1753)" fill="#FEB80A"/>
<rect x="413.579" y="35.5366" width="3.56657" height="13.5367" fill="#11484C"/>
<rect width="3.56337" height="13.5489" transform="matrix(0.500449 0.865766 -0.866285 0.499551 420.339 37.3784)" fill="#11484C"/>
<rect width="3.56337" height="13.5489" transform="matrix(-0.500449 0.865766 -0.866285 -0.499551 422.106 44.1753)" fill="#11484C"/>
<rect x="439.115" y="35.5366" width="3.56657" height="13.5367" fill="#FEB80A"/>
<rect width="3.56337" height="13.5489" transform="matrix(0.500449 0.865766 -0.866285 0.499551 445.875 37.3784)" fill="#FEB80A"/>
<rect width="3.56337" height="13.5489" transform="matrix(-0.500449 0.865766 -0.866285 -0.499551 447.643 44.1753)" fill="#FEB80A"/>
</svg>
