<svg width="620" height="50" viewBox="0 0 620 50" fill="none" xmlns="http://www.w3.org/2000/svg">
<rect x="14.5538" y="0.463257" width="3.56657" height="13.5367" fill="#FF4D6A"/>
<rect width="3.56337" height="13.5489" transform="matrix(0.500449 0.865766 -0.866285 0.499551 21.3141 2.3049)" fill="#FF4D6A"/>
<rect width="3.56337" height="13.5489" transform="matrix(-0.500449 0.865766 -0.866285 -0.499551 23.0813 9.10196)" fill="#FF4D6A"/>
<rect x="40.0905" y="0.463257" width="3.56657" height="13.5367" fill="#11484C"/>
<rect width="3.56337" height="13.5489" transform="matrix(0.500449 0.865766 -0.866285 0.499551 46.8507 2.3049)" fill="#11484C"/>
<rect width="3.56337" height="13.5489" transform="matrix(-0.500449 0.865766 -0.866285 -0.499551 48.6179 9.10196)" fill="#11484C"/>
<rect x="65.6271" y="0.463257" width="3.56657" height="13.5367" fill="#FF4D6A"/>
<rect width="3.56337" height="13.5489" transform="matrix(0.500449 0.865766 -0.866285 0.499551 72.3875 2.3049)" fill="#FF4D6A"/>
<rect width="3.56337" height="13.5489" transform="matrix(-0.500449 0.865766 -0.866285 -0.499551 74.1545 9.10196)" fill="#FF4D6A"/>
<rect x="91.1636" y="0.463257" width="3.56657" height="13.5367" fill="#11484C"/>
<rect width="3.56337" height="13.5489" transform="matrix(0.500449 0.865766 -0.866285 0.499551 97.9241 2.3049)" fill="#11484C"/>
<rect width="3.56337" height="13.5489" transform="matrix(-0.500449 0.865766 -0.866285 -0.499551 99.6912 9.10196)" fill="#11484C"/>
<rect x="116.7" y="0.463257" width="3.56657" height="13.5367" fill="#FF4D6A"/>
<rect width="3.56337" height="13.5489" transform="matrix(0.500449 0.865766 -0.866285 0.499551 123.461 2.3049)" fill="#FF4D6A"/>
<rect width="3.56337" height="13.5489" transform="matrix(-0.500449 0.865766 -0.866285 -0.499551 125.228 9.10196)" fill="#FF4D6A"/>
<rect x="142.237" y="0.463257" width="3.56657" height="13.5367" fill="#11484C"/>
<rect width="3.56337" height="13.5489" transform="matrix(0.500449 0.865766 -0.866285 0.499551 148.997 2.3049)" fill="#11484C"/>
<rect width="3.56337" height="13.5489" transform="matrix(-0.500449 0.865766 -0.866285 -0.499551 150.764 9.10196)" fill="#11484C"/>
<rect x="167.773" y="0.463257" width="3.56657" height="13.5367" fill="#FF4D6A"/>
<rect width="3.56337" height="13.5489" transform="matrix(0.500449 0.865766 -0.866285 0.499551 174.534 2.3049)" fill="#FF4D6A"/>
<rect width="3.56337" height="13.5489" transform="matrix(-0.500449 0.865766 -0.866285 -0.499551 176.301 9.10196)" fill="#FF4D6A"/>
<rect x="193.31" y="0.463257" width="3.56657" height="13.5367" fill="#11484C"/>
<rect width="3.56337" height="13.5489" transform="matrix(0.500449 0.865766 -0.866285 0.499551 200.07 2.3049)" fill="#11484C"/>
<rect width="3.56337" height="13.5489" transform="matrix(-0.500449 0.865766 -0.866285 -0.499551 201.837 9.10196)" fill="#11484C"/>
<rect x="218.846" y="0.463257" width="3.56657" height="13.5367" fill="#FF4D6A"/>
<rect width="3.56337" height="13.5489" transform="matrix(0.500449 0.865766 -0.866285 0.499551 225.607 2.3049)" fill="#FF4D6A"/>
<rect width="3.56337" height="13.5489" transform="matrix(-0.500449 0.865766 -0.866285 -0.499551 227.374 9.10196)" fill="#FF4D6A"/>
<rect x="244.383" y="0.463257" width="3.56657" height="13.5367" fill="#11484C"/>
<rect width="3.56337" height="13.5489" transform="matrix(0.500449 0.865766 -0.866285 0.499551 251.144 2.3049)" fill="#11484C"/>
<rect width="3.56337" height="13.5489" transform="matrix(-0.500449 0.865766 -0.866285 -0.499551 252.911 9.10196)" fill="#11484C"/>
<rect x="269.92" y="0.463257" width="3.56657" height="13.5367" fill="#FF4D6A"/>
<rect width="3.56337" height="13.5489" transform="matrix(0.500449 0.865766 -0.866285 0.499551 276.68 2.3049)" fill="#FF4D6A"/>
<rect width="3.56337" height="13.5489" transform="matrix(-0.500449 0.865766 -0.866285 -0.499551 278.447 9.10196)" fill="#FF4D6A"/>
<rect x="295.456" y="0.463257" width="3.56657" height="13.5367" fill="#11484C"/>
<rect width="3.56337" height="13.5489" transform="matrix(0.500449 0.865766 -0.866285 0.499551 302.217 2.3049)" fill="#11484C"/>
<rect width="3.56337" height="13.5489" transform="matrix(-0.500449 0.865766 -0.866285 -0.499551 303.984 9.10196)" fill="#11484C"/>
<rect x="320.993" y="0.463257" width="3.56657" height="13.5367" fill="#FF4D6A"/>
<rect width="3.56337" height="13.5489" transform="matrix(0.500449 0.865766 -0.866285 0.499551 327.753 2.3049)" fill="#FF4D6A"/>
<rect width="3.56337" height="13.5489" transform="matrix(-0.500449 0.865766 -0.866285 -0.499551 329.521 9.10196)" fill="#FF4D6A"/>
<rect x="346.53" y="0.463257" width="3.56657" height="13.5367" fill="#11484C"/>
<rect width="3.56337" height="13.5489" transform="matrix(0.500449 0.865766 -0.866285 0.499551 353.29 2.3049)" fill="#11484C"/>
<rect width="3.56337" height="13.5489" transform="matrix(-0.500449 0.865766 -0.866285 -0.499551 355.057 9.10196)" fill="#11484C"/>
<rect x="372.066" y="0.463257" width="3.56657" height="13.5367" fill="#FF4D6A"/>
<rect width="3.56337" height="13.5489" transform="matrix(0.500449 0.865766 -0.866285 0.499551 378.826 2.3049)" fill="#FF4D6A"/>
<rect width="3.56337" height="13.5489" transform="matrix(-0.500449 0.865766 -0.866285 -0.499551 380.594 9.10196)" fill="#FF4D6A"/>
<rect x="397.603" y="0.463257" width="3.56657" height="13.5367" fill="#11484C"/>
<rect width="3.56337" height="13.5489" transform="matrix(0.500449 0.865766 -0.866285 0.499551 404.363 2.3049)" fill="#11484C"/>
<rect width="3.56337" height="13.5489" transform="matrix(-0.500449 0.865766 -0.866285 -0.499551 406.13 9.10196)" fill="#11484C"/>
<rect x="423.139" y="0.463257" width="3.56657" height="13.5367" fill="#FF4D6A"/>
<rect width="3.56337" height="13.5489" transform="matrix(0.500449 0.865766 -0.866285 0.499551 429.9 2.3049)" fill="#FF4D6A"/>
<rect width="3.56337" height="13.5489" transform="matrix(-0.500449 0.865766 -0.866285 -0.499551 431.667 9.10196)" fill="#FF4D6A"/>
<rect x="448.676" y="0.463257" width="3.56657" height="13.5367" fill="#11484C"/>
<rect width="3.56337" height="13.5489" transform="matrix(0.500449 0.865766 -0.866285 0.499551 455.436 2.3049)" fill="#11484C"/>
<rect width="3.56337" height="13.5489" transform="matrix(-0.500449 0.865766 -0.866285 -0.499551 457.203 9.10196)" fill="#11484C"/>
<rect x="474.212" y="0.463257" width="3.56657" height="13.5367" fill="#FF4D6A"/>
<rect width="3.56337" height="13.5489" transform="matrix(0.500449 0.865766 -0.866285 0.499551 480.973 2.3049)" fill="#FF4D6A"/>
<rect width="3.56337" height="13.5489" transform="matrix(-0.500449 0.865766 -0.866285 -0.499551 482.74 9.10196)" fill="#FF4D6A"/>
<rect x="499.749" y="0.463257" width="3.56657" height="13.5367" fill="#11484C"/>
<rect width="3.56337" height="13.5489" transform="matrix(0.500449 0.865766 -0.866285 0.499551 506.51 2.3049)" fill="#11484C"/>
<rect width="3.56337" height="13.5489" transform="matrix(-0.500449 0.865766 -0.866285 -0.499551 508.277 9.10196)" fill="#11484C"/>
<rect x="525.286" y="0.463257" width="3.56657" height="13.5367" fill="#FF4D6A"/>
<rect width="3.56337" height="13.5489" transform="matrix(0.500449 0.865766 -0.866285 0.499551 532.046 2.3049)" fill="#FF4D6A"/>
<rect width="3.56337" height="13.5489" transform="matrix(-0.500449 0.865766 -0.866285 -0.499551 533.813 9.10196)" fill="#FF4D6A"/>
<rect x="550.822" y="0.463257" width="3.56657" height="13.5367" fill="#11484C"/>
<rect width="3.56337" height="13.5489" transform="matrix(0.500449 0.865766 -0.866285 0.499551 557.583 2.3049)" fill="#11484C"/>
<rect width="3.56337" height="13.5489" transform="matrix(-0.500449 0.865766 -0.866285 -0.499551 559.35 9.10196)" fill="#11484C"/>
<rect x="576.359" y="0.463257" width="3.56657" height="13.5367" fill="#FF4D6A"/>
<rect width="3.56337" height="13.5489" transform="matrix(0.500449 0.865766 -0.866285 0.499551 583.119 2.3049)" fill="#FF4D6A"/>
<rect width="3.56337" height="13.5489" transform="matrix(-0.500449 0.865766 -0.866285 -0.499551 584.886 9.10196)" fill="#FF4D6A"/>
<rect x="601.895" y="0.463257" width="3.56657" height="13.5367" fill="#11484C"/>
<rect width="3.56337" height="13.5489" transform="matrix(0.500449 0.865766 -0.866285 0.499551 608.656 2.3049)" fill="#11484C"/>
<rect width="3.56337" height="13.5489" transform="matrix(-0.500449 0.865766 -0.866285 -0.499551 610.423 9.10196)" fill="#11484C"/>
<rect x="14.5538" y="36" width="3.56657" height="13.5367" fill="#11484C"/>
<rect width="3.56337" height="13.5489" transform="matrix(0.500449 0.865766 -0.866285 0.499551 21.3141 37.8416)" fill="#11484C"/>
<rect width="3.56337" height="13.5489" transform="matrix(-0.500449 0.865766 -0.866285 -0.499551 23.0813 44.6387)" fill="#11484C"/>
<rect x="40.0905" y="36" width="3.56657" height="13.5367" fill="#FF4D6A"/>
<rect width="3.56337" height="13.5489" transform="matrix(0.500449 0.865766 -0.866285 0.499551 46.8507 37.8416)" fill="#FF4D6A"/>
<rect width="3.56337" height="13.5489" transform="matrix(-0.500449 0.865766 -0.866285 -0.499551 48.6179 44.6387)" fill="#FF4D6A"/>
<rect x="65.6271" y="36" width="3.56657" height="13.5367" fill="#11484C"/>
<rect width="3.56337" height="13.5489" transform="matrix(0.500449 0.865766 -0.866285 0.499551 72.3875 37.8416)" fill="#11484C"/>
<rect width="3.56337" height="13.5489" transform="matrix(-0.500449 0.865766 -0.866285 -0.499551 74.1545 44.6387)" fill="#11484C"/>
<rect x="91.1636" y="36" width="3.56657" height="13.5367" fill="#FF4D6A"/>
<rect width="3.56337" height="13.5489" transform="matrix(0.500449 0.865766 -0.866285 0.499551 97.9241 37.8416)" fill="#FF4D6A"/>
<rect width="3.56337" height="13.5489" transform="matrix(-0.500449 0.865766 -0.866285 -0.499551 99.6912 44.6387)" fill="#FF4D6A"/>
<rect x="116.7" y="36" width="3.56657" height="13.5367" fill="#11484C"/>
<rect width="3.56337" height="13.5489" transform="matrix(0.500449 0.865766 -0.866285 0.499551 123.461 37.8416)" fill="#11484C"/>
<rect width="3.56337" height="13.5489" transform="matrix(-0.500449 0.865766 -0.866285 -0.499551 125.228 44.6387)" fill="#11484C"/>
<rect x="142.237" y="36" width="3.56657" height="13.5367" fill="#FF4D6A"/>
<rect width="3.56337" height="13.5489" transform="matrix(0.500449 0.865766 -0.866285 0.499551 148.997 37.8416)" fill="#FF4D6A"/>
<rect width="3.56337" height="13.5489" transform="matrix(-0.500449 0.865766 -0.866285 -0.499551 150.764 44.6387)" fill="#FF4D6A"/>
<rect x="167.773" y="36" width="3.56657" height="13.5367" fill="#11484C"/>
<rect width="3.56337" height="13.5489" transform="matrix(0.500449 0.865766 -0.866285 0.499551 174.534 37.8416)" fill="#11484C"/>
<rect width="3.56337" height="13.5489" transform="matrix(-0.500449 0.865766 -0.866285 -0.499551 176.301 44.6387)" fill="#11484C"/>
<rect x="193.31" y="36" width="3.56657" height="13.5367" fill="#FF4D6A"/>
<rect width="3.56337" height="13.5489" transform="matrix(0.500449 0.865766 -0.866285 0.499551 200.07 37.8416)" fill="#FF4D6A"/>
<rect width="3.56337" height="13.5489" transform="matrix(-0.500449 0.865766 -0.866285 -0.499551 201.837 44.6387)" fill="#FF4D6A"/>
<rect x="218.846" y="36" width="3.56657" height="13.5367" fill="#11484C"/>
<rect width="3.56337" height="13.5489" transform="matrix(0.500449 0.865766 -0.866285 0.499551 225.607 37.8416)" fill="#11484C"/>
<rect width="3.56337" height="13.5489" transform="matrix(-0.500449 0.865766 -0.866285 -0.499551 227.374 44.6387)" fill="#11484C"/>
<rect x="244.383" y="36" width="3.56657" height="13.5367" fill="#FF4D6A"/>
<rect width="3.56337" height="13.5489" transform="matrix(0.500449 0.865766 -0.866285 0.499551 251.144 37.8416)" fill="#FF4D6A"/>
<rect width="3.56337" height="13.5489" transform="matrix(-0.500449 0.865766 -0.866285 -0.499551 252.911 44.6387)" fill="#FF4D6A"/>
<rect x="269.92" y="36" width="3.56657" height="13.5367" fill="#11484C"/>
<rect width="3.56337" height="13.5489" transform="matrix(0.500449 0.865766 -0.866285 0.499551 276.68 37.8416)" fill="#11484C"/>
<rect width="3.56337" height="13.5489" transform="matrix(-0.500449 0.865766 -0.866285 -0.499551 278.447 44.6387)" fill="#11484C"/>
<rect x="295.456" y="36" width="3.56657" height="13.5367" fill="#FF4D6A"/>
<rect width="3.56337" height="13.5489" transform="matrix(0.500449 0.865766 -0.866285 0.499551 302.217 37.8416)" fill="#FF4D6A"/>
<rect width="3.56337" height="13.5489" transform="matrix(-0.500449 0.865766 -0.866285 -0.499551 303.984 44.6387)" fill="#FF4D6A"/>
<rect x="320.993" y="36" width="3.56657" height="13.5367" fill="#11484C"/>
<rect width="3.56337" height="13.5489" transform="matrix(0.500449 0.865766 -0.866285 0.499551 327.753 37.8416)" fill="#11484C"/>
<rect width="3.56337" height="13.5489" transform="matrix(-0.500449 0.865766 -0.866285 -0.499551 329.521 44.6387)" fill="#11484C"/>
<rect x="346.53" y="36" width="3.56657" height="13.5367" fill="#FF4D6A"/>
<rect width="3.56337" height="13.5489" transform="matrix(0.500449 0.865766 -0.866285 0.499551 353.29 37.8416)" fill="#FF4D6A"/>
<rect width="3.56337" height="13.5489" transform="matrix(-0.500449 0.865766 -0.866285 -0.499551 355.057 44.6387)" fill="#FF4D6A"/>
<rect x="372.066" y="36" width="3.56657" height="13.5367" fill="#11484C"/>
<rect width="3.56337" height="13.5489" transform="matrix(0.500449 0.865766 -0.866285 0.499551 378.826 37.8416)" fill="#11484C"/>
<rect width="3.56337" height="13.5489" transform="matrix(-0.500449 0.865766 -0.866285 -0.499551 380.594 44.6387)" fill="#11484C"/>
<rect x="397.603" y="36" width="3.56657" height="13.5367" fill="#FF4D6A"/>
<rect width="3.56337" height="13.5489" transform="matrix(0.500449 0.865766 -0.866285 0.499551 404.363 37.8416)" fill="#FF4D6A"/>
<rect width="3.56337" height="13.5489" transform="matrix(-0.500449 0.865766 -0.866285 -0.499551 406.13 44.6387)" fill="#FF4D6A"/>
<rect x="423.139" y="36" width="3.56657" height="13.5367" fill="#11484C"/>
<rect width="3.56337" height="13.5489" transform="matrix(0.500449 0.865766 -0.866285 0.499551 429.9 37.8416)" fill="#11484C"/>
<rect width="3.56337" height="13.5489" transform="matrix(-0.500449 0.865766 -0.866285 -0.499551 431.667 44.6387)" fill="#11484C"/>
<rect x="448.676" y="36" width="3.56657" height="13.5367" fill="#FF4D6A"/>
<rect width="3.56337" height="13.5489" transform="matrix(0.500449 0.865766 -0.866285 0.499551 455.436 37.8416)" fill="#FF4D6A"/>
<rect width="3.56337" height="13.5489" transform="matrix(-0.500449 0.865766 -0.866285 -0.499551 457.203 44.6387)" fill="#FF4D6A"/>
<rect x="474.212" y="36" width="3.56657" height="13.5367" fill="#11484C"/>
<rect width="3.56337" height="13.5489" transform="matrix(0.500449 0.865766 -0.866285 0.499551 480.973 37.8416)" fill="#11484C"/>
<rect width="3.56337" height="13.5489" transform="matrix(-0.500449 0.865766 -0.866285 -0.499551 482.74 44.6387)" fill="#11484C"/>
<rect x="499.749" y="36" width="3.56657" height="13.5367" fill="#FF4D6A"/>
<rect width="3.56337" height="13.5489" transform="matrix(0.500449 0.865766 -0.866285 0.499551 506.51 37.8416)" fill="#FF4D6A"/>
<rect width="3.56337" height="13.5489" transform="matrix(-0.500449 0.865766 -0.866285 -0.499551 508.277 44.6387)" fill="#FF4D6A"/>
<rect x="525.286" y="36" width="3.56657" height="13.5367" fill="#11484C"/>
<rect width="3.56337" height="13.5489" transform="matrix(0.500449 0.865766 -0.866285 0.499551 532.046 37.8416)" fill="#11484C"/>
<rect width="3.56337" height="13.5489" transform="matrix(-0.500449 0.865766 -0.866285 -0.499551 533.813 44.6387)" fill="#11484C"/>
<rect x="550.822" y="36" width="3.56657" height="13.5367" fill="#FF4D6A"/>
<rect width="3.56337" height="13.5489" transform="matrix(0.500449 0.865766 -0.866285 0.499551 557.583 37.8416)" fill="#FF4D6A"/>
<rect width="3.56337" height="13.5489" transform="matrix(-0.500449 0.865766 -0.866285 -0.499551 559.35 44.6387)" fill="#FF4D6A"/>
<rect x="576.359" y="36" width="3.56657" height="13.5367" fill="#11484C"/>
<rect width="3.56337" height="13.5489" transform="matrix(0.500449 0.865766 -0.866285 0.499551 583.119 37.8416)" fill="#11484C"/>
<rect width="3.56337" height="13.5489" transform="matrix(-0.500449 0.865766 -0.866285 -0.499551 584.886 44.6387)" fill="#11484C"/>
<rect x="601.895" y="36" width="3.56657" height="13.5367" fill="#FF4D6A"/>
<rect width="3.56337" height="13.5489" transform="matrix(0.500449 0.865766 -0.866285 0.499551 608.656 37.8416)" fill="#FF4D6A"/>
<rect width="3.56337" height="13.5489" transform="matrix(-0.500449 0.865766 -0.866285 -0.499551 610.423 44.6387)" fill="#FF4D6A"/>
</svg>
