<svg width="1440" height="664" viewBox="0 0 1440 664" fill="none" xmlns="http://www.w3.org/2000/svg">
<line y1="-0.5" x2="628.713" y2="-0.5" transform="matrix(0.303072 -0.952968 0.971618 0.236555 91.3623 666.874)" stroke="#11484C" stroke-opacity="0.06"/>
<line y1="-0.5" x2="632.467" y2="-0.5" transform="matrix(0.19771 -0.98026 0.988289 0.152595 323.591 666.874)" stroke="#11484C" stroke-opacity="0.06"/>
<line y1="-0.5" x2="637.867" y2="-0.5" transform="matrix(0.0840157 -0.996464 0.997923 0.0644116 537.953 672.084)" stroke="#11484C" stroke-opacity="0.06"/>
<line y1="-0.5" x2="635.612" y2="-0.5" transform="matrix(7.5545e-05 -1 1 5.78328e-05 752.316 666.874)" stroke="#11484C" stroke-opacity="0.06"/>
<line y1="-0.5" x2="659.143" y2="-0.5" transform="matrix(-0.0902648 -0.995918 0.997601 -0.0692182 966.631 672.084)" stroke="#11484C" stroke-opacity="0.06"/>
<line y1="-0.5" x2="684.596" y2="-0.5" transform="matrix(-0.226075 -0.97411 0.984581 -0.17493 1204.81 672.084)" stroke="#11484C" stroke-opacity="0.06"/>
<line y1="-0.5" x2="713.023" y2="-0.5" transform="matrix(-0.333977 -0.942581 0.965125 -0.261788 1437.04 677.294)" stroke="#11484C" stroke-opacity="0.06"/>
<line y1="-0.5" x2="752.296" y2="-0.5" transform="matrix(-0.43527 -0.9003 0.937826 -0.347106 1675.22 677.294)" stroke="#11484C" stroke-opacity="0.06"/>
<line y1="-0.5" x2="649.243" y2="-0.5" transform="matrix(0.385203 -0.922832 0.952549 0.304385 -117.047 666.874)" stroke="#11484C" stroke-opacity="0.06"/>
<line y1="-0.5" x2="2217.84" y2="-0.5" transform="matrix(1 0.000806309 -0.00759842 0.999971 -328.358 280.351)" stroke="#11484C" stroke-opacity="0.06"/>
<line y1="-0.5" x2="2217.84" y2="-0.5" transform="matrix(1 0.000806309 -0.00759842 0.999971 -328.358 327.979)" stroke="#11484C" stroke-opacity="0.06"/>
<line y1="-0.5" x2="2217.84" y2="-0.5" transform="matrix(1 0.000806309 -0.00759842 0.999971 -328.358 375.604)" stroke="#11484C" stroke-opacity="0.06"/>
<line y1="-0.5" x2="2217.84" y2="-0.5" transform="matrix(1 0.000806309 -0.00759842 0.999971 -328.358 435.716)" stroke="#11484C" stroke-opacity="0.06"/>
<line y1="-0.5" x2="2217.84" y2="-0.5" transform="matrix(1 0.000806309 -0.00759842 0.999971 -328.358 495.827)" stroke="#11484C" stroke-opacity="0.06"/>
<line y1="-0.5" x2="2217.84" y2="-0.5" transform="matrix(1 0.000806309 -0.00759842 0.999971 -328.358 555.938)" stroke="#11484C" stroke-opacity="0.06"/>
<line y1="-0.5" x2="2217.84" y2="-0.5" transform="matrix(1 0.000806309 -0.00759842 0.999971 -328.358 234.112)" stroke="#11484C" stroke-opacity="0.06"/>
<line y1="-0.5" x2="2217.84" y2="-0.5" transform="matrix(1 0.000806309 -0.00759842 0.999971 -328.358 192.982)" stroke="#11484C" stroke-opacity="0.06"/>
<line y1="-0.5" x2="2217.84" y2="-0.5" transform="matrix(1 0.000806309 -0.00759842 0.999971 -328.358 155.428)" stroke="#11484C" stroke-opacity="0.06"/>
<line y1="-0.5" x2="2217.84" y2="-0.5" transform="matrix(1 0.000806309 -0.00759842 0.999971 -328.358 114.298)" stroke="#11484C" stroke-opacity="0.06"/>
</svg>
