<svg width="24" height="26" viewBox="0 0 24 26" fill="none" xmlns="http://www.w3.org/2000/svg">
<path d="M24 1.1464V11.5427C24 12.174 23.4942 12.6857 22.8703 12.6857H21.4033C15.9131 12.6857 11.4623 17.189 11.4623 22.7441V24.239C11.4623 24.8644 10.9612 25.3714 10.3431 25.3714C10.0828 25.3714 9.83542 25.2564 9.66581 25.0565C8.22428 23.3547 1.40954 15.3097 0.803606 14.5944C0.77483 14.5605 0.744672 14.5278 0.714237 14.4956C-0.253329 13.4662 -0.237835 11.8383 0.76072 10.828L3.3574 8.20061C4.37145 7.17459 6.01551 7.17459 7.02956 8.20061C7.55858 8.73588 8.20879 8.97552 8.84682 8.97552C10.1815 8.97552 11.4623 7.92654 11.4623 6.34286C11.4623 2.83983 14.269 0 17.7312 0H22.867C23.4928 0 24 0.513151 24 1.1464Z" fill="black"/>
</svg>