<svg width="1212" height="240" viewBox="0 0 1212 240" fill="none" xmlns="http://www.w3.org/2000/svg">
<path d="M120 240L120 120L0 120L0 240H120Z" fill="#140C2F"/>
<path d="M120 120H0L120 0V60V120Z" fill="#140C2F"/>
<path d="M240 120V0L120 0L120 120L240 120Z" fill="#140C2F"/>
<path d="M312.528 101H300V0H342.192C350.832 0 357.6 2.736 362.496 8.208C367.488 13.68 369.984 21.072 369.984 30.384C369.984 39.696 367.488 47.088 362.496 52.56C357.6 57.936 350.832 60.624 342.192 60.624H312.528V101ZM312.528 11.088V49.536H340.032C345.312 49.536 349.488 47.856 352.56 44.496C355.632 41.04 357.168 36.336 357.168 30.384C357.168 24.336 355.632 19.632 352.56 16.272C349.488 12.816 345.312 11.088 340.032 11.088H312.528Z" fill="#140C2F"/>
<path d="M393.881 101H382.361V0H393.881V36.056C400.505 28.856 408.473 25.256 417.785 25.256C425.369 25.256 431.513 27.752 436.217 32.744C440.921 37.736 443.273 44.504 443.273 53.048V101H431.753V54.344C431.753 48.392 430.265 43.832 427.289 40.664C424.313 37.4 420.329 35.768 415.337 35.768C407.561 35.768 400.409 39.656 393.881 47.432V101Z" fill="#140C2F"/>
<path d="M487.338 92.216C493.482 92.216 498.186 90.632 501.45 87.464C504.81 84.296 506.49 80.072 506.49 74.792V53.192C506.49 47.912 504.81 43.688 501.45 40.52C498.186 37.352 493.482 35.768 487.338 35.768C481.29 35.768 476.538 37.4 473.082 40.664C469.722 43.832 468.042 48.008 468.042 53.192V74.792C468.042 79.976 469.722 84.2 473.082 87.464C476.538 90.632 481.29 92.216 487.338 92.216ZM456.522 75.224V52.76C456.522 44.504 459.21 37.88 464.586 32.888C470.058 27.8 477.642 25.256 487.338 25.256C497.034 25.256 504.57 27.752 509.946 32.744C515.322 37.736 518.01 44.408 518.01 52.76V75.224C518.01 83.576 515.322 90.248 509.946 95.24C504.57 100.232 497.034 102.728 487.338 102.728C477.642 102.728 470.058 100.232 464.586 95.24C459.21 90.152 456.522 83.48 456.522 75.224Z" fill="#140C2F"/>
<path d="M543.624 101H532.104V26.984H539.016L543.048 36.776C549.864 29.096 557.976 25.256 567.384 25.256C575.16 25.256 581.352 27.752 585.96 32.744C590.664 37.64 593.016 44.408 593.016 53.048V101H581.496V54.344C581.496 48.392 580.008 43.832 577.032 40.664C574.056 37.4 570.072 35.768 565.08 35.768C557.304 35.768 550.152 39.656 543.624 47.432V101Z" fill="#140C2F"/>
<path d="M637.081 102.728C627.577 102.728 620.041 100.28 614.473 95.384C609.001 90.488 606.266 83.864 606.266 75.512V52.76C606.266 44.408 609.001 37.736 614.473 32.744C620.041 27.752 627.577 25.256 637.081 25.256C646.393 25.256 653.689 27.704 658.969 32.6C664.345 37.496 667.033 44.12 667.033 52.472V67.88H617.785V75.224C617.785 80.408 619.465 84.536 622.826 87.608C626.282 90.68 631.033 92.216 637.081 92.216C647.641 92.216 653.641 87.752 655.081 78.824H666.602C665.93 86.312 663.002 92.168 657.818 96.392C652.73 100.616 645.817 102.728 637.081 102.728ZM617.785 52.472V58.52H655.513V52.472C655.513 47.384 653.833 43.352 650.473 40.376C647.209 37.304 642.602 35.768 636.65 35.768C630.794 35.768 626.186 37.304 622.826 40.376C619.465 43.352 617.785 47.384 617.785 52.472Z" fill="#140C2F"/>
<path d="M719.562 101H707.034V0H718.554L768.666 78.336V0H781.194V101H769.674L719.562 24.048V101Z" fill="#140C2F"/>
<path d="M854.226 25.504H865.746L865.608 101H858.696L854.658 89.728C848.13 97.408 840.066 101.248 830.466 101.248C822.786 101.248 816.642 98.8 812.034 93.904C807.426 88.912 805.122 82.096 805.122 73.456V25.504H816.642V72.16C816.642 78.112 818.082 82.72 820.962 85.984C823.842 89.152 827.778 90.736 832.77 90.736C840.642 90.736 847.794 86.848 854.226 79.072V25.504Z" fill="#140C2F"/>
<path d="M900.384 101H888.864L888.935 26.504H895.847L899.879 36.296C906.695 28.616 914.423 24.776 923.063 24.776C933.239 24.776 940.151 29.192 943.799 38.024C951.191 29.192 959.687 24.776 969.287 24.776C976.775 24.776 982.583 27.08 986.711 31.688C990.839 36.296 992.903 42.872 992.903 51.416L992.832 101H981.312L981.383 52.712C981.383 47.048 980.039 42.728 977.351 39.752C974.663 36.776 971.063 35.288 966.551 35.288C959.639 35.288 952.919 39.272 946.391 47.24C946.583 50.12 946.679 53.288 946.679 56.744L946.608 101H935.088L935.159 52.712C935.159 47.048 933.815 42.728 931.127 39.752C928.439 36.776 924.839 35.288 920.327 35.288C913.127 35.288 906.503 39.176 900.455 46.952L900.384 101Z" fill="#140C2F"/>
<path d="M1050.62 101.248C1041.12 101.248 1032.96 97.408 1026.14 89.728L1022.11 101H1015.2V0H1026.72V34.576C1032.77 27.376 1040.59 23.776 1050.19 23.776C1058.26 23.776 1064.69 26.176 1069.49 30.976C1074.29 35.776 1076.69 42.448 1076.69 50.992V74.032C1076.69 82.576 1074.29 89.248 1069.49 94.048C1064.78 98.848 1058.5 101.248 1050.62 101.248ZM1048.46 90.736C1053.46 90.736 1057.49 89.152 1060.56 85.984C1063.63 82.72 1065.17 78.448 1065.17 73.168V51.856C1065.17 46.576 1063.63 42.352 1060.56 39.184C1057.49 35.92 1053.5 34.288 1048.61 34.288C1041.22 34.288 1033.92 38.176 1026.72 45.952V79.072C1033.92 86.848 1041.17 90.736 1048.46 90.736Z" fill="#140C2F"/>
<path d="M1125.23 101.248C1115.73 101.248 1108.19 98.8 1102.63 93.904C1097.15 89.008 1094.42 82.384 1094.42 74.032V51.28C1094.42 42.928 1097.15 36.256 1102.63 31.264C1108.19 26.272 1115.73 23.776 1125.23 23.776C1134.55 23.776 1141.84 26.224 1147.12 31.12C1152.5 36.016 1155.19 42.64 1155.19 50.992V66.4H1105.94V73.744C1105.94 78.928 1107.62 83.056 1110.98 86.128C1114.43 89.2 1119.19 90.736 1125.23 90.736C1135.79 90.736 1141.79 86.272 1143.23 77.344H1154.75C1154.08 84.832 1151.15 90.688 1145.97 94.912C1140.88 99.136 1133.97 101.248 1125.23 101.248ZM1105.94 50.992V57.04H1143.67V50.992C1143.67 45.904 1141.99 41.872 1138.63 38.896C1135.36 35.824 1130.75 34.288 1124.8 34.288C1118.95 34.288 1114.34 35.824 1110.98 38.896C1107.62 41.872 1105.94 45.904 1105.94 50.992Z" fill="#140C2F"/>
<path d="M1186.44 101H1174.92V27.504H1180.96L1185.14 37.296C1192.05 29.616 1200.12 25.776 1209.33 25.776H1211.2V37.008H1209.62C1199.92 37.008 1192.2 40.464 1186.44 47.376V101Z" fill="#140C2F"/>
<path d="M337.559 239.728C327.08 239.728 318.177 236.869 310.85 231.15C303.617 225.523 300 217.222 300 206.246H312.102C312.102 210.304 312.891 213.855 314.467 216.899C316.044 219.943 318.13 222.295 320.727 223.955C323.416 225.523 326.199 226.723 329.073 227.553C331.948 228.291 334.962 228.66 338.115 228.66C344.978 228.66 350.31 227.23 354.113 224.37C357.915 221.511 359.816 217.729 359.816 213.025C359.816 208.782 358.147 205.508 354.808 203.202C351.47 200.712 345.72 197.944 337.559 194.901L330.604 192.41C321.052 189.09 314.003 185.446 309.459 181.48C305.193 177.791 303.06 172.441 303.06 165.431C303.06 157.314 306.074 150.857 312.102 146.061C318.13 141.172 326.291 138.728 336.585 138.728C347.528 138.728 356.153 141.495 362.459 147.029C368.765 152.471 371.918 160.588 371.918 171.38H359.816C359.816 164.278 357.683 158.928 353.417 155.331C349.151 151.641 343.494 149.797 336.446 149.797C330.047 149.797 324.9 151.18 321.005 153.947C317.11 156.622 315.163 160.173 315.163 164.601C315.163 168.751 316.646 172.026 319.614 174.424C322.489 176.73 327.821 179.22 335.611 181.895L342.149 184.247C351.98 187.937 359.074 191.349 363.433 194.486C369.554 198.821 372.614 204.816 372.614 212.472C372.614 220.681 369.507 227.276 363.294 232.257C357.173 237.238 348.595 239.728 337.559 239.728Z" fill="#140C2F"/>
<path d="M413.207 239.574C404.026 239.574 396.746 237.222 391.367 232.518C386.081 227.814 383.438 221.45 383.438 213.425V191.303C383.438 183.279 386.081 176.868 391.367 172.072C396.746 167.276 404.026 164.877 413.207 164.877C422.203 164.877 429.251 167.229 434.351 171.934C439.545 176.638 442.141 183.002 442.141 191.027V205.831H394.567V213.148C394.567 218.129 396.19 222.095 399.436 225.047C402.774 227.999 407.365 229.474 413.207 229.474C423.408 229.474 429.205 225.185 430.596 216.607H441.724C441.075 223.802 438.246 229.428 433.239 233.487C428.323 237.545 421.646 239.574 413.207 239.574ZM394.567 191.027V196.838H431.013V191.027C431.013 186.138 429.39 182.264 426.144 179.405C422.991 176.453 418.54 174.977 412.79 174.977C407.133 174.977 402.681 176.453 399.436 179.405C396.19 182.264 394.567 186.138 394.567 191.027Z" fill="#140C2F"/>
<path d="M484.402 239.574H473.969L447.291 171.795V166.538H457.724L479.533 224.632L500.986 166.538H511.141V171.795L484.402 239.574Z" fill="#140C2F"/>
<path d="M530.739 239.574H519.61V166.538H530.739V239.574ZM530.739 155.228H519.61V139.728H530.739V155.228Z" fill="#140C2F"/>
<path d="M573.597 239.547C564.508 239.547 557.368 237.195 552.174 232.491C546.981 227.695 544.384 221.238 544.384 213.121V191.538C544.384 183.421 546.981 177.01 552.174 172.306C557.368 167.51 564.508 165.112 573.597 165.112C582.407 165.112 589.409 167.418 594.602 172.03C599.795 176.549 602.392 182.729 602.392 190.569V191.261H591.263V190.431C591.263 185.911 589.687 182.268 586.534 179.501C583.381 176.641 579.068 175.212 573.597 175.212C567.847 175.212 563.396 176.641 560.242 179.501C557.089 182.36 555.513 186.28 555.513 191.261V213.398C555.513 218.379 557.089 222.299 560.242 225.158C563.396 228.018 567.847 229.447 573.597 229.447C579.068 229.447 583.381 228.064 586.534 225.297C589.687 222.437 591.263 218.656 591.263 213.952V212.983H602.392V213.813C602.392 221.561 599.749 227.787 594.463 232.491C589.269 237.195 582.314 239.547 573.597 239.547Z" fill="#140C2F"/>
<path d="M642.066 239.547C632.885 239.547 625.605 237.195 620.226 232.491C614.94 227.787 612.297 221.423 612.297 213.398V191.538C612.297 183.513 614.94 177.103 620.226 172.306C625.605 167.51 632.885 165.112 642.066 165.112C651.061 165.112 658.109 167.464 663.21 172.168C668.403 176.872 671 183.236 671 191.261V206.065H623.425V213.121C623.425 218.102 625.048 222.068 628.294 225.02C631.633 227.972 636.223 229.447 642.066 229.447C652.267 229.447 658.063 225.158 659.454 216.58H670.583C669.934 223.775 667.105 229.401 662.097 233.46C657.182 237.518 650.505 239.547 642.066 239.547ZM623.425 191.261V197.072H659.871V191.261C659.871 186.373 658.249 182.499 655.003 179.639C651.85 176.688 647.398 175.212 641.648 175.212C635.991 175.212 631.54 176.688 628.294 179.639C625.048 182.499 623.425 186.373 623.425 191.261Z" fill="#140C2F"/>
</svg>
